<?xml version="1.0" encoding="UTF-8"?>
<svg width="1006px" height="1000px" viewBox="0 0 1006 1000" version="1.1" xmlns="http://www.w3.org/2000/svg" xmlns:xlink="http://www.w3.org/1999/xlink">
    <title>logo</title>
    <g id="页面-1" stroke="none" stroke-width="1" fill="none" fill-rule="evenodd">
        <g id="logo">
            <rect id="矩形" x="0" y="0" width="1000" height="1000"></rect>
            <path d="M518.34712,121.368705 L334.127661,521.200487 C352.833191,521.200487 386.176449,523.524004 416.921591,543.672685 L642.981253,218.493606 C662.90985,187.79207 678.248893,131.723195 643.25916,97.9041653 C608.27045,64.1025177 534.453472,77.8792082 518.34712,121.368705 Z M957.662247,551.802828 L558.122561,736.156966 C558.122561,717.43776 555.800742,684.070126 535.66678,653.302507 L860.608301,427.077577 C891.287408,407.134411 947.315322,391.784154 981.109645,426.799467 C1014.8866,461.813757 1001.11997,535.684701 957.662247,551.802828 Z M678.755665,274.158608 L455.953969,569.859244 C455.953969,569.859244 469.919703,580.363151 485.024773,594.57745 C500.129842,608.791749 507.712646,620.973178 507.712646,620.973178 C675.80652,490.8252 773.484189,411.622799 800.745651,383.365975 C841.637845,340.98074 868.98019,293.88184 823.504572,249.943482 C788.425951,209.217706 721.460385,221.988389 678.755665,274.158608 Z M510.488013,767.992509 C534.350221,743.274434 509.418274,685.041002 453.421012,630.930146 C397.458487,576.855076 338.429789,553.921202 314.585971,578.639276 C263.474561,631.60804 264.651579,721.466293 317.136178,772.186657 C369.620776,822.905999 459.394993,820.942868 510.506403,767.992509 L510.488013,767.992509 Z" id="形状" stroke="#2196F3" stroke-width="10.225325" fill="#2196F3" fill-rule="nonzero" stroke-linecap="round" stroke-linejoin="round"></path>
        </g>
    </g>
</svg>