<?xml version="1.0" encoding="UTF-8"?>
<svg width="50px" height="50px" viewBox="0 0 50 50" version="1.1" xmlns="http://www.w3.org/2000/svg" xmlns:xlink="http://www.w3.org/1999/xlink">
    <title>形状</title>
    <g id="页面-1" stroke="none" stroke-width="1" fill="none" fill-rule="evenodd" stroke-linecap="round" stroke-linejoin="round">
        <g id="logo" fill="#2196F3" fill-rule="nonzero" stroke="#2196F3" stroke-width="0.51126625">
            <path d="M16.8991959,3.21133858 L4.45807353,30.2136767 C5.72133745,30.2136767 7.97314924,30.3705937 10.0494992,31.7313197 L25.3162682,9.77059557 C26.662131,7.69719048 27.6980417,3.91062123 25.3350365,1.62667856 C22.9721002,-0.65609024 17.9869263,0.274308173 16.8991959,3.21133858 Z M46.568012,32.2803828 L19.5854003,44.7306006 C19.5854003,43.4664131 19.428598,41.2129551 18.0688661,39.1350871 L40.0135469,23.8571569 C42.0854373,22.5103102 45.8692402,21.4736422 48.1515144,23.8383749 C50.4326155,26.2030386 49.5028968,31.1918572 46.568012,32.2803828 Z M27.7322661,13.5298895 L12.6855215,33.4998092 C12.6855215,33.4998092 13.6286868,34.2091827 14.6487963,35.1691346 C15.6689058,36.1290866 16.1810047,36.9517502 16.1810047,36.9517502 C27.5330979,28.1623046 34.1296856,22.8134301 35.9707679,20.9051268 C38.7323914,18.0426719 40.5789361,14.8618832 37.5077745,11.8945392 C35.1387663,9.14415466 30.6162972,10.0066131 27.7322661,13.5298895 Z M16.368437,46.88059 C17.9799533,45.2112734 16.2961931,41.2785225 12.5144601,37.6241866 C8.73507318,33.9722675 4.74861452,32.4234455 3.13834025,34.0927621 C-0.313430344,37.6699676 -0.233941294,43.738477 3.31056653,47.1638386 C6.85507435,50.5891312 12.9179084,50.4565526 16.369679,46.88059 L16.368437,46.88059 Z" id="形状"></path>
        </g>
    </g>
</svg>